<?xml version="1.0" encoding="UTF-8"?>
<svg version="1.1" xmlns="http://www.w3.org/2000/svg" width="500" height="500">
<path d="M0 0 C1.75647883 0.98362814 3.49215281 1.99742666 5.22705078 3.01855469 C6.51451605 3.74694121 7.80228463 4.47479183 9.09033203 5.20214844 C28.90777032 16.58020253 28.90777032 16.58020253 34.27783203 23.76074219 C36.86082932 27.03934891 38.29222354 28.49029589 42.22705078 30.01855469 C49.99635531 29.77843195 57.61123195 27.72231783 65.09082031 25.73388672 C72.98405899 23.93354503 80.75385121 23.83211251 88.81689453 23.78027344 C90.03365372 23.77220169 91.2504129 23.76412994 92.50404358 23.7558136 C95.08186439 23.74201481 97.65970315 23.73127396 100.23754883 23.72338867 C102.82516999 23.71196678 105.41276947 23.69167447 108.00024414 23.66186523 C127.89761774 23.43321852 147.07828696 24.67333553 166.37109375 29.82978821 C168.52408854 30.24003823 168.52408854 30.24003823 171.09814453 28.22949219 C171.94505859 27.29363281 172.79197266 26.35777344 173.66455078 25.39355469 C192.35671612 6.2016978 218.03948072 -4.76963189 243.41455078 -11.73144531 C244.48302246 -12.0255127 245.55149414 -12.31958008 246.65234375 -12.62255859 C256.66647096 -15.27792443 266.77629469 -17.26010734 277.16455078 -17.29394531 C278.36982422 -17.31070313 279.57509766 -17.32746094 280.81689453 -17.34472656 C285.79090861 -16.81484877 288.91939172 -15.25090815 292.50048828 -11.77441406 C297.85568724 -5.13516182 302.30454883 1.75108337 306.29492188 9.26416016 C307.16969324 10.91059993 308.06676501 12.54513628 308.96533203 14.17871094 C321.57246321 38.03082349 327.65968072 63.95961626 332.60205078 90.26855469 C332.73574066 90.96624969 332.86943054 91.6639447 333.00717163 92.38278198 C336.73176813 111.99968528 336.73176813 111.99968528 334.35205078 121.51855469 C334.21132069 125.45899715 334.89292621 126.66997115 336.72705078 130.08105469 C343.16582283 142.06016548 346.70635269 155.64662606 349.53955078 168.89355469 C349.68666504 169.58006104 349.8337793 170.26656738 349.98535156 170.97387695 C352.68897255 184.56945408 353.60636911 198.00844774 353.53955078 211.83105469 C353.53681656 213.01119644 353.53681656 213.01119644 353.5340271 214.21517944 C353.40474756 247.41054361 344.11131269 275.93692418 320.66455078 300.01855469 C273.04653267 347.08432202 202.85287268 360.18674761 138.53955078 360.20605469 C137.63500153 360.2070517 136.73045227 360.20804871 135.79849243 360.20907593 C133.22901933 360.20875426 130.65976787 360.19979954 128.09033203 360.18652344 C127.30940186 360.18531494 126.52847168 360.18410645 125.72387695 360.18286133 C120.34383268 360.13533659 120.34383268 360.13533659 119.22705078 359.01855469 C117.16649768 358.91861937 115.10252488 358.88774563 113.03955078 358.88574219 C111.15623047 358.88380859 111.15623047 358.88380859 109.23486328 358.88183594 C108.57776367 358.88393066 107.92066406 358.88602539 107.24365234 358.88818359 C105.23543744 358.89353235 103.22744619 358.88823778 101.21923828 358.88183594 C99.96369141 358.883125 98.70814453 358.88441406 97.41455078 358.88574219 C96.25310547 358.88687012 95.09166016 358.88799805 93.89501953 358.88916016 C91.30641794 358.71517995 91.30641794 358.71517995 90.22705078 360.01855469 C87.59714976 360.13289821 84.99464093 360.18243507 82.36376953 360.18652344 C81.55313049 360.19075821 80.74249146 360.19499298 79.9072876 360.19935608 C77.24299078 360.20934094 74.57886322 360.20925702 71.91455078 360.20605469 C71.00746368 360.20545044 70.10037659 360.20484619 69.165802 360.20422363 C3.8184007 360.08584197 -61.93755983 344.85682631 -110.77294922 299.01855469 C-111.38396484 298.47199219 -111.99498047 297.92542969 -112.62451172 297.36230469 C-131.94828495 279.36207756 -141.95716435 251.64319967 -142.97827148 225.79296875 C-143.09940378 221.34704858 -143.10696395 216.90329608 -143.08544922 212.45605469 C-143.0836264 211.66996826 -143.08180359 210.88388184 -143.07992554 210.07397461 C-142.97436362 182.93183958 -138.99617242 153.60053587 -125.83544922 129.39355469 C-123.58422294 125.12052646 -123.69947552 122.80789889 -124.77294922 118.01855469 C-125.61222442 107.67002075 -123.58885956 97.74722073 -121.64794922 87.64355469 C-121.48855865 86.800961 -121.32916809 85.95836731 -121.16494751 85.09024048 C-114.95968793 52.38439341 -105.06342628 8.05964695 -78.77294922 -14.98144531 C-58.76615673 -25.39453697 -18.26921819 -9.76885569 0 0 Z " fill="#FEFEFE" transform="translate(144.77294921875,58.9814453125)"/>
<path d="M0 0 C1.75647883 0.98362814 3.49215281 1.99742666 5.22705078 3.01855469 C6.51451605 3.74694121 7.80228463 4.47479183 9.09033203 5.20214844 C28.90777032 16.58020253 28.90777032 16.58020253 34.27783203 23.76074219 C36.86082932 27.03934891 38.29222354 28.49029589 42.22705078 30.01855469 C49.99635531 29.77843195 57.61123195 27.72231783 65.09082031 25.73388672 C72.98405899 23.93354503 80.75385121 23.83211251 88.81689453 23.78027344 C90.03365372 23.77220169 91.2504129 23.76412994 92.50404358 23.7558136 C95.08186439 23.74201481 97.65970315 23.73127396 100.23754883 23.72338867 C102.82516999 23.71196678 105.41276947 23.69167447 108.00024414 23.66186523 C127.89761774 23.43321852 147.07828696 24.67333553 166.37109375 29.82978821 C168.52408854 30.24003823 168.52408854 30.24003823 171.09814453 28.22949219 C171.94505859 27.29363281 172.79197266 26.35777344 173.66455078 25.39355469 C192.35671612 6.2016978 218.03948072 -4.76963189 243.41455078 -11.73144531 C244.48302246 -12.0255127 245.55149414 -12.31958008 246.65234375 -12.62255859 C256.66647096 -15.27792443 266.77629469 -17.26010734 277.16455078 -17.29394531 C278.36982422 -17.31070313 279.57509766 -17.32746094 280.81689453 -17.34472656 C285.79090861 -16.81484877 288.91939172 -15.25090815 292.50048828 -11.77441406 C297.85568724 -5.13516182 302.30454883 1.75108337 306.29492188 9.26416016 C307.16969324 10.91059993 308.06676501 12.54513628 308.96533203 14.17871094 C321.57246321 38.03082349 327.65968072 63.95961626 332.60205078 90.26855469 C332.73574066 90.96624969 332.86943054 91.6639447 333.00717163 92.38278198 C336.73176813 111.99968528 336.73176813 111.99968528 334.35205078 121.51855469 C334.21132069 125.45899715 334.89292621 126.66997115 336.72705078 130.08105469 C343.16582283 142.06016548 346.70635269 155.64662606 349.53955078 168.89355469 C349.68666504 169.58006104 349.8337793 170.26656738 349.98535156 170.97387695 C352.68897255 184.56945408 353.60636911 198.00844774 353.53955078 211.83105469 C353.53681656 213.01119644 353.53681656 213.01119644 353.5340271 214.21517944 C353.40474756 247.41054361 344.11131269 275.93692418 320.66455078 300.01855469 C273.04653267 347.08432202 202.85287268 360.18674761 138.53955078 360.20605469 C137.63500153 360.2070517 136.73045227 360.20804871 135.79849243 360.20907593 C133.22901933 360.20875426 130.65976787 360.19979954 128.09033203 360.18652344 C127.30940186 360.18531494 126.52847168 360.18410645 125.72387695 360.18286133 C120.34383268 360.13533659 120.34383268 360.13533659 119.22705078 359.01855469 C117.16649768 358.91861937 115.10252488 358.88774563 113.03955078 358.88574219 C111.15623047 358.88380859 111.15623047 358.88380859 109.23486328 358.88183594 C108.57776367 358.88393066 107.92066406 358.88602539 107.24365234 358.88818359 C105.23543744 358.89353235 103.22744619 358.88823778 101.21923828 358.88183594 C99.96369141 358.883125 98.70814453 358.88441406 97.41455078 358.88574219 C96.25310547 358.88687012 95.09166016 358.88799805 93.89501953 358.88916016 C91.30641794 358.71517995 91.30641794 358.71517995 90.22705078 360.01855469 C87.59714976 360.13289821 84.99464093 360.18243507 82.36376953 360.18652344 C81.55313049 360.19075821 80.74249146 360.19499298 79.9072876 360.19935608 C77.24299078 360.20934094 74.57886322 360.20925702 71.91455078 360.20605469 C71.00746368 360.20545044 70.10037659 360.20484619 69.165802 360.20422363 C3.8184007 360.08584197 -61.93755983 344.85682631 -110.77294922 299.01855469 C-111.38396484 298.47199219 -111.99498047 297.92542969 -112.62451172 297.36230469 C-131.94828495 279.36207756 -141.95716435 251.64319967 -142.97827148 225.79296875 C-143.09940378 221.34704858 -143.10696395 216.90329608 -143.08544922 212.45605469 C-143.0836264 211.66996826 -143.08180359 210.88388184 -143.07992554 210.07397461 C-142.97436362 182.93183958 -138.99617242 153.60053587 -125.83544922 129.39355469 C-123.58422294 125.12052646 -123.69947552 122.80789889 -124.77294922 118.01855469 C-125.61222442 107.67002075 -123.58885956 97.74722073 -121.64794922 87.64355469 C-121.48855865 86.800961 -121.32916809 85.95836731 -121.16494751 85.09024048 C-114.95968793 52.38439341 -105.06342628 8.05964695 -78.77294922 -14.98144531 C-58.76615673 -25.39453697 -18.26921819 -9.76885569 0 0 Z M-77.08154297 -0.80175781 C-77.63970703 0.12894531 -78.19787109 1.05964844 -78.77294922 2.01855469 C-79.53369394 3.18845947 -80.29549616 4.35767699 -81.05810547 5.52636719 C-98.34138077 32.81058181 -107.18528962 64.31086652 -112.14794922 95.95605469 C-112.31560791 97.01477783 -112.4832666 98.07350098 -112.65600586 99.16430664 C-113.82712396 107.1007625 -114.60070183 114.7698883 -112.77294922 122.64355469 C-112.12246563 128.39097821 -114.77854634 132.49165348 -117.44360352 137.35205078 C-122.10448945 146.07567731 -124.34712539 155.48382911 -126.77294922 165.01855469 C-127.02842529 165.96311523 -127.28390137 166.90767578 -127.54711914 167.88085938 C-129.46612921 175.13850908 -130.64646387 182.30990484 -131.46044922 189.76855469 C-131.64933716 191.47797241 -131.64933716 191.47797241 -131.84204102 193.22192383 C-135.1533664 224.8218773 -130.85108688 254.96257809 -111.77294922 281.01855469 C-108.90378488 284.48610089 -105.90361192 287.78624709 -102.77294922 291.01855469 C-102.25643799 291.55697998 -101.73992676 292.09540527 -101.20776367 292.65014648 C-64.70943782 330.05615996 -3.81979538 348.46273351 47.35452271 349.15899658 C49.54524657 349.1708433 51.73600303 349.17748699 53.92675781 349.1796875 C55.13520355 349.1846524 56.34364929 349.18961731 57.5887146 349.19473267 C60.87064262 349.20673597 64.15253525 349.21427288 67.43448114 349.21874332 C69.50048105 349.22170205 71.56647576 349.22581191 73.63247299 349.2302475 C80.14116481 349.24388971 86.64984432 349.2535693 93.15854943 349.25744939 C100.58737622 349.26190616 108.01601683 349.27935624 115.44478714 349.30844998 C121.24072018 349.33033348 127.03660193 349.34016779 132.83257568 349.34149051 C136.26838201 349.34252083 139.70401276 349.34803484 143.13977432 349.36631012 C193.48732926 349.59392718 248.11175763 339.54143544 290.22705078 310.01855469 C291.22091797 309.32503906 292.21478516 308.63152344 293.23876953 307.91699219 C317.41213332 290.3982676 335.75197281 267.9375882 341.22705078 238.01855469 C346.41798092 204.9638264 343.59154023 162.20359897 325.72705078 132.83105469 C323.15265863 128.51315886 322.7844296 125.70951535 323.79736328 120.79589844 C325.11306716 112.29166701 323.83847119 103.93863716 322.47705078 95.51855469 C322.29295654 94.3692749 322.1088623 93.21999512 321.91918945 92.03588867 C321.3723082 88.69357681 320.80639352 85.35538111 320.22705078 82.01855469 C320.01072998 80.77162842 320.01072998 80.77162842 319.79003906 79.49951172 C314.88110993 52.36057137 304.46974374 25.03871109 289.22705078 2.01855469 C288.68951172 1.1278125 288.15197266 0.23707031 287.59814453 -0.68066406 C285.15396446 -4.19072717 283.50648068 -5.73359763 279.24267578 -6.55957031 C243.20566041 -7.70101424 208.26729304 10.89150678 181.22705078 33.01855469 C179.79425781 34.10523437 179.79425781 34.10523437 178.33251953 35.21386719 C177.63771484 35.80941406 176.94291016 36.40496094 176.22705078 37.01855469 C176.22705078 37.67855469 176.22705078 38.33855469 176.22705078 39.01855469 C175.58767578 39.30730469 174.94830078 39.59605469 174.28955078 39.89355469 C172.07498999 40.8467892 172.07498999 40.8467892 171.22705078 43.01855469 C167.49217301 42.52057098 165.41467444 42.14363712 162.22705078 40.01855469 C159.59901485 39.26600749 157.0170529 38.60709503 154.35205078 38.01855469 C153.56701172 37.84485352 152.78197266 37.67115234 151.97314453 37.4921875 C131.0511705 32.9819922 131.0511705 32.9819922 110.22705078 35.01855469 C108.58333587 35.11185403 106.93590401 35.14850613 105.28955078 35.14355469 C104.00757813 35.14742187 104.00757813 35.14742187 102.69970703 35.15136719 C100.22705078 35.01855469 100.22705078 35.01855469 98.35083008 34.51904297 C90.41858749 32.64973646 81.4488423 34.34460199 73.47705078 35.26855469 C71.76267822 35.4666272 71.76267822 35.4666272 70.01367188 35.66870117 C61.16826316 36.76070366 52.07764584 37.98765075 44.06298828 42.13964844 C42.22705078 43.01855469 42.22705078 43.01855469 39.22705078 43.01855469 C38.11115374 41.65855517 37.00052012 40.29402623 35.91064453 38.91308594 C20.92927645 22.05470191 -2.46598656 9.32110788 -23.70703125 2.66992188 C-25.7581667 2.02321549 -27.7947031 1.34163779 -29.83154297 0.65136719 C-55.23397409 -8.52072895 -55.23397409 -8.52072895 -77.08154297 -0.80175781 Z " fill="#020202" transform="translate(144.77294921875,58.9814453125)"/>
<path d="M0 0 C1.5169043 -0.01740234 1.5169043 -0.01740234 3.06445312 -0.03515625 C15.64534883 0.01344991 26.41007145 3.97965998 35.6875 12.625 C45.46818439 23.09771394 48.67557965 34.33204466 48.2109375 48.28515625 C47.65172206 58.41804767 43.87920527 65.94578566 36.9375 73.375 C24.0039074 84.76489257 7.93405402 93.0165292 -9.5 92.8125 C-10.41942383 92.80420166 -11.33884766 92.79590332 -12.28613281 92.78735352 C-24.97000608 92.47171692 -33.3135869 88.05186065 -42.2578125 79.203125 C-46.58440691 74.57319002 -49.49837771 70.12182661 -52.0625 64.375 C-53.11882463 62.26772643 -54.18170592 60.16373092 -55.25 58.0625 C-58.93956267 50.76744065 -60.73984802 43.96326309 -58.30859375 35.86328125 C-56.36841768 31.38185496 -53.95246068 27.31585548 -51.0625 23.375 C-50.381875 22.42625 -49.70125 21.4775 -49 20.5 C-36.89878652 6.40651357 -18.05481467 -0.20792493 0 0 Z " fill="#FFA7B7" transform="translate(98.0625,243.625)"/>
<path d="M0 0 C10.11580981 6.73952793 17.14533958 15.43601875 21 27 C22.33679745 38.13361308 18.32640042 47.02059296 12 56 C11.42799461 57.26658337 10.8662674 58.53783719 10.3125 59.8125 C5.22392839 70.12770525 -4.44644521 75.80214469 -14.67578125 80.1328125 C-29.6193497 84.0311347 -45.01696735 81.19578314 -58.16015625 73.65234375 C-70.35662796 66.37090932 -81.7472583 58.50528402 -85.52734375 43.99609375 C-87.70693741 30.17999181 -86.09998344 17.77986406 -77.81640625 6.1953125 C-57.68594986 -18.13440039 -24.96903954 -14.79027958 0 0 Z " fill="#FFA7B7" transform="translate(440,255)"/>
<path d="M0 0 C4.17276012 0.21606525 6.06656913 1.65745906 8.9375 4.5625 C20.09502667 14.90452638 36.59773918 23.42961856 51.97265625 23.28515625 C57.5694137 22.75797781 63.88218217 21.35944805 67.74609375 17.0546875 C69.3089413 14.49375973 70.07244671 11.84449675 71 9 C71.66 8.34 72.32 7.68 73 7 C79.57692308 7.57692308 79.57692308 7.57692308 81 9 C81.31664348 15.29156832 79.5983905 19.50778717 75.6015625 24.28125 C69.39661119 30.94022213 61.91000872 33.46550309 52.9765625 34.2734375 C35.4072451 34.80584106 18.54164425 26.60523661 4.9296875 15.8359375 C2.98590382 14.76257839 2.98590382 14.76257839 0.75 15.5546875 C-2.14678624 17.07714618 -4.9359373 18.71469522 -7.72314453 20.42797852 C-22.89030982 29.74613146 -39.55770556 37.51635237 -57.84765625 33.3515625 C-65.36205435 30.63383583 -71.62875563 26.01673359 -75.5 18.9375 C-76.99173111 15.53820124 -77.53350464 12.7345325 -77 9 C-75 7 -75 7 -72.0625 6.6875 C-69 7 -69 7 -67.25 8.125 C-66 10 -66 10 -65.0625 12.9375 C-63.83860345 16.46520183 -62.98996497 17.77669271 -60 20 C-50.58342311 24.40574782 -41.69713001 23.72893864 -32.05053711 20.30883789 C-30.09704605 19.53747986 -28.17175467 18.72229958 -26.25 17.875 C-25.56115723 17.57150635 -24.87231445 17.2680127 -24.16259766 16.95532227 C-16.19446379 13.32933223 -8.52213473 8.955379 -2.5625 2.4375 C-1.716875 1.633125 -0.87125 0.82875 0 0 Z " fill="#060606" transform="translate(248,301)"/>
<path d="M0 0 C0.88268555 -0.00926514 1.76537109 -0.01853027 2.67480469 -0.02807617 C3.49883789 -0.02396729 4.32287109 -0.0198584 5.171875 -0.015625 C5.91018555 -0.01336914 6.64849609 -0.01111328 7.40917969 -0.00878906 C9.25 0.25 9.25 0.25 11.25 2.25 C11.6875 4.6875 11.6875 4.6875 11.25 7.25 C6.65914027 11.22679569 1.02655489 10.95753705 -4.75 11.3125 C-18.79169682 12.25923657 -32.38782408 14.66005537 -46.14208984 17.54418945 C-48.61250504 18.05989166 -51.08539266 18.56230646 -53.55859375 19.06445312 C-62.44256145 20.90258992 -70.97010792 23.10844086 -79.51245117 26.17529297 C-82.72454717 27.24155091 -85.862177 27.94939865 -89.1875 28.5625 C-95.47704099 29.87964055 -100.72476329 32.51321774 -106.28295898 35.64575195 C-109.20884879 37.24393946 -111.21918396 38.27624914 -114.59375 38.109375 C-116.75 37.25 -116.75 37.25 -118.75 35.25 C-119.375 32.9375 -119.375 32.9375 -118.75 30.25 C-116.35999023 28.1058198 -113.58050835 26.73557736 -110.75 25.25 C-109.87859375 24.75242188 -109.0071875 24.25484375 -108.109375 23.7421875 C-101.25486986 20.01528443 -94.65296418 17.97305203 -87.09765625 16.3046875 C-83.543755 15.50011958 -80.11116824 14.43290479 -76.640625 13.32421875 C-69.65410382 11.14228452 -62.61137314 9.61339855 -55.4375 8.1875 C-54.16511475 7.93000977 -52.89272949 7.67251953 -51.58178711 7.40722656 C-47.97274957 6.68002727 -44.36191476 5.96275259 -40.75 5.25 C-39.87182617 5.07549316 -38.99365234 4.90098633 -38.08886719 4.72119141 C-33.65122967 3.84371926 -29.20702762 3.02446625 -24.75 2.25 C-23.08517578 1.94255859 -23.08517578 1.94255859 -21.38671875 1.62890625 C-14.24218321 0.43403006 -7.22962729 0.04822323 0 0 Z " fill="#070707" transform="translate(404.75,209.75)"/>
<path d="M0 0 C19.99840972 0 39.87298166 4.25382305 59.375 8.3125 C60.18705902 8.47967529 60.99911804 8.64685059 61.83578491 8.8190918 C70.1250576 10.53838261 78.10639566 12.38102804 86.01416016 15.46875 C88.91638129 16.56397562 91.83491316 17.21548036 94.875 17.8125 C103.68100095 19.75438936 115.75106221 23.81356221 122.25 30.3125 C122.54431219 33.1084658 122.58772308 34.74962819 121.125 37.1875 C118.2719529 38.89932826 116.43319799 38.06551458 113.25 37.3125 C111.15592524 36.29153563 109.09492679 35.20125313 107.0625 34.0625 C99.93126417 30.25995584 92.62029492 28.31562381 84.79296875 26.453125 C81.79908144 25.73781933 78.9218231 24.88544409 76.01953125 23.86230469 C71.5275495 22.34838222 67.04032683 21.2935281 62.39453125 20.375 C61.57839859 20.20956192 60.76226593 20.04412384 59.92140198 19.87367249 C57.30315134 19.34605571 54.68310798 18.82827166 52.0625 18.3125 C51.16871643 18.1350827 50.27493286 17.95766541 49.35406494 17.77487183 C32.29155149 14.39601418 15.26032228 11.2245287 -2.16796875 10.71875 C-4.75 10.3125 -4.75 10.3125 -6.59765625 8.9765625 C-8.34761036 6.44951012 -8.00936535 4.29520157 -7.75 1.3125 C-5.82698574 -0.61051426 -2.55252277 0.04792286 0 0 Z " fill="#070707" transform="translate(91.75,209.6875)"/>
<path d="M0 0 C10.40248865 -0.81234185 19.17689118 1.83565984 27.33984375 8.40625 C29.74606813 10.71622541 31.34782115 13.10868702 33 16 C32.67 16.66 32.34 17.32 32 18 C31.53851563 17.40832031 31.07703125 16.81664062 30.6015625 16.20703125 C22.06493736 5.86523044 12.95101339 3.29535252 0 1 C0 0.67 0 0.34 0 0 Z " fill="#FFE7EC" transform="translate(97,268)"/>
<path d="M0 0 C0 0.33 0 0.66 0 1 C-0.89460938 1.14695312 -1.78921875 1.29390625 -2.7109375 1.4453125 C-15.20562524 3.7630904 -23.23528624 7.86987676 -31 18 C-31.33 17.34 -31.66 16.68 -32 16 C-27.54350438 8.20113267 -20.94725014 3.81286418 -12.609375 0.6796875 C-8.39392867 -0.41834792 -4.31792997 -0.33073506 0 0 Z " fill="#FFE8EC" transform="translate(402,268)"/>
<path d="M0 0 C5.35995109 0.33499694 9.11910334 3.55602548 13 7 C15.13372486 10.20058729 15.46560278 12.18258832 15.40234375 15.9921875 C14.73310805 19.33186859 12.56653554 20.94677157 10 23 C10.33 22.01 10.66 21.02 11 20 C11.53495732 15.3958591 11.43364314 11.91932346 9.4375 7.6875 C6.5105368 4.46033545 3.88029067 2.94014534 0 1 C0 0.67 0 0.34 0 0 Z " fill="#FFECF0" transform="translate(404,284)"/>
<path d="M0 0 C5.16173755 2.13202203 7.58411183 6.11349481 10 11 C11.19327882 16.27906549 9.74146343 20.43089428 7 25 C5.99665563 21.98996688 6.03190161 20.52557495 6.25 17.4375 C6.34802552 11.36882934 4.01011062 7.13199187 1 2 C0.67 1.34 0.34 0.68 0 0 Z " fill="#FFF0F3" transform="translate(427,278)"/>
<path d="M0 0 C0.66 0.33 1.32 0.66 2 1 C1.65066406 1.59425781 1.30132812 2.18851562 0.94140625 2.80078125 C-2.59731353 9.24666458 -3.84668681 14.66884213 -4 22 C-6.71812037 18.73247232 -7.57652062 16.52011158 -7.4296875 12.1640625 C-6.47523343 7.35708473 -3.40639502 3.40639502 0 0 Z " fill="#FFF2F4" transform="translate(70,279)"/>
<path d="M0 0 C0.66 0.33 1.32 0.66 2 1 C1.360625 1.78375 0.72125 2.5675 0.0625 3.375 C-2.59149023 6.75280575 -3.12453729 8.23964306 -3.0625 12.4375 C-3.05347656 13.21996094 -3.04445313 14.00242187 -3.03515625 14.80859375 C-3.02355469 15.53175781 -3.01195313 16.25492187 -3 17 C-3 17.99 -3 18.98 -3 20 C-6.00257144 16.99742856 -6.95356754 15.3250272 -7.5625 11.0625 C-7.33988001 6.36076589 -5.29769346 4.21917695 -2 1 C-1.34 0.67 -0.68 0.34 0 0 Z " fill="#FFF2F4" transform="translate(88,287)"/>
</svg>
